<?xml version="1.0" encoding="UTF-8"?>
<!DOCTYPE svg PUBLIC "-//W3C//DTD SVG 1.1//EN" "http://www.w3.org/Graphics/SVG/1.1/DTD/svg11.dtd">
<svg version="1.1" id="Layer_1" xmlns="http://www.w3.org/2000/svg" xmlns:xlink="http://www.w3.org/1999/xlink" width="342" height="342" viewBox="0 0 342 342" overflow="visible" enable-background="new 0 0 342 342" xml:space="preserve">
<g>
	<g>
		<path d="M169.044,7.988c1.431-0.043,2.888-0.087,5.003,0.645c-0.546,1.236-0.643,1.557-0.817,2.782    c-0.358-0.44-0.689-0.881-1.362-1.232c-0.673-0.351-1.714-0.558-2.773-0.525c-2.066,0.062-3.84,1.017-4.835,2.293    c-1.071,1.384-1.536,3.572-1.475,5.612c0.071,2.383,0.883,4.666,2.249,6.03c1.34,1.338,3.212,1.891,5.094,1.835    c2.622-0.079,3.759-1.068,4.379-1.591c-0.311,1.15-0.404,1.524-0.553,2.774c-0.736,0.181-2.105,0.514-4.251,0.579    c-1.033,0.031-4.715,0.142-7.335-2.351c-1.884-1.826-2.651-4.374-2.724-6.811C159.453,11.725,162.66,8.181,169.044,7.988z"/>
		<path d="M221.38,15.956c1.368,0.419,2.762,0.848,4.53,2.222c-0.915,0.994-1.109,1.267-1.671,2.37    c-0.196-0.532-0.369-1.056-0.894-1.605c-0.523-0.549-1.441-1.081-2.455-1.391c-1.977-0.607-3.963-0.274-5.316,0.613    c-1.461,0.965-2.605,2.887-3.205,4.837c-0.699,2.28-0.666,4.702,0.188,6.434c0.838,1.698,2.432,2.825,4.23,3.377    c2.508,0.77,3.902,0.201,4.658-0.094c-0.663,0.988-0.874,1.312-1.416,2.448c-0.757-0.065-2.16-0.191-4.212-0.822    c-0.987-0.303-4.51-1.384-6.187-4.588c-1.196-2.335-1.101-4.995-0.385-7.325C211.098,16.402,215.274,14.081,221.38,15.956z"/>
		<path d="M238.808,22.667l-1.537,3.51l1.677-0.097l-0.71,1.582l-1.672,0.1l-2.088,4.837l1.639-0.085l-0.714,1.623l-1.66,0.09    l-1.482,3.433l-0.674-0.296l1.344-3.084l-4.253,0.221l-1.645,3.802l-0.645-0.27l1.521-3.488l-1.678,0.083l0.709-1.611l1.705-0.099    l2.096-4.834l-1.69,0.091l0.704-1.6l1.682-0.094l1.515-3.475l0.662,0.291l-1.364,3.131l4.215-0.182l1.693-3.894L238.808,22.667z     M235.766,27.833l-4.253,0.222l-2.095,4.819l4.226-0.219L235.766,27.833z"/>
		<path d="M250.159,33.646c2.305-1.712,2.798-2.316,3.428-3.056c0.321,0.242,0.618,0.47,0.965,0.665    c0.345,0.196,0.718,0.345,1.09,0.494c-1.815,0.953-2.173,1.208-4.144,2.652l-8.926,6.708l-1.444,1.103    c-1.394,1.07-1.646,1.354-2.033,1.986c-0.333-0.218-0.677-0.472-1.022-0.668c-0.346-0.195-0.718-0.344-1.101-0.529    c1.541-0.682,3.275-1.925,4.249-2.624L250.159,33.646z"/>
		<path d="M255.515,41.426c3.596-5.019,3.794-5.563,4.317-7.147c0.254,0.282,1.385,1.296,2.179,1.871    c1.354,0.978,2.524,1.53,4.114,2.679c2.125,1.537,5.037,4.067,4.033,8.214c-0.432,1.683-1.482,3.408-2.212,4.417    c-1.568,2.169-3.748,3.961-6.396,4.368c-3.167,0.49-5.997-1.294-7.844-2.63c-1.31-0.947-2.257-1.763-3.094-2.368    c-0.902-0.652-1.399-0.914-1.952-1.28c0.363-0.097,0.959-0.287,2.955-2.866c0.975-1.258,1.487-1.966,2.021-2.66L255.515,41.426z     M253.622,48.658c-0.554,0.81-1.028,1.513,1.14,3.081c0.667,0.481,2.511,1.684,4.241,1.823c3.153,0.252,5.368-2.495,6.378-3.891    c1.148-1.589,2.408-3.784,1.703-6.29c-0.58-1.957-2.145-3.186-2.811-3.667c-0.987-0.714-2.17-1.34-2.797-1.695    c-0.758,0.957-2.343,3.015-3.492,4.604L253.622,48.658z"/>
		<path d="M277.145,51.334l-6.856,7.438c2.027-0.362,3.463-0.156,4.31,0.618c0.529,0.484,0.789,1.055,0.783,1.714    c-0.008,0.659-0.281,1.284-0.822,1.876c-0.89,0.973-2.092,1.461-3.607,1.465c-1.518,0.003-3.026-0.477-4.527-1.441l-0.508-0.325    l10.737-11.76L277.145,51.334z M266.959,62.441l0.393,0.202c1.101,0.586,2.156,0.849,3.168,0.79    c1.013-0.06,1.834-0.435,2.468-1.127c0.383-0.418,0.603-0.865,0.657-1.34c0.055-0.475-0.07-0.852-0.377-1.131    c-0.629-0.576-1.885-0.628-3.765-0.156L266.959,62.441z"/>
		<path d="M303.157,90.509c5.411-2.976,5.824-3.381,6.979-4.584c0.107,0.364,0.69,1.767,1.158,2.628    c0.799,1.466,1.616,2.469,2.555,4.191c1.254,2.304,2.789,5.844,0.094,9.151c-1.116,1.332-2.808,2.435-3.901,3.029    c-2.351,1.28-5.091,1.957-7.655,1.181c-3.068-0.924-4.851-3.755-5.94-5.757c-0.773-1.42-1.275-2.565-1.769-3.473    c-0.533-0.978-0.869-1.428-1.21-1.997c0.37,0.07,0.99,0.155,3.903-1.311c1.422-0.714,2.19-1.132,2.971-1.526L303.157,90.509z     M298.33,96.215c-0.849,0.493-1.58,0.921-0.302,3.272c0.394,0.722,1.538,2.603,3.039,3.475c2.735,1.589,5.92,0.066,7.433-0.758    c1.723-0.938,3.807-2.374,4.25-4.939c0.321-2.015-0.56-3.799-0.952-4.521c-0.583-1.07-1.379-2.146-1.791-2.735    c-1.096,0.536-3.415,1.708-5.138,2.646L298.33,96.215z"/>
		<path d="M322.674,140.568c6.102-0.952,6.628-1.192,8.124-1.929c-0.023,0.378,0.047,1.896,0.192,2.865    c0.251,1.651,0.677,2.873,0.972,4.812c0.393,2.594,0.628,6.445-3.034,8.636c-1.502,0.87-3.47,1.329-4.701,1.516    c-2.647,0.401-5.453,0.104-7.6-1.501c-2.567-1.916-3.277-5.186-3.619-7.439c-0.242-1.598-0.324-2.846-0.479-3.867    c-0.167-1.101-0.328-1.639-0.454-2.29c0.324,0.192,0.877,0.483,4.117,0.1c1.579-0.186,2.443-0.317,3.312-0.421L322.674,140.568z     M316.188,144.285c-0.966,0.173-1.8,0.326-1.399,2.973c0.124,0.812,0.559,2.97,1.671,4.303c2.029,2.426,5.542,2.082,7.246,1.823    c1.938-0.293,4.388-0.933,5.68-3.192c0.99-1.785,0.771-3.762,0.647-4.575c-0.184-1.205-0.565-2.487-0.752-3.183    c-1.213,0.13-3.791,0.44-5.73,0.735L316.188,144.285z"/>
		<path d="M334.1,169.884l-3.828,0.091l0.796,1.47l-1.733,0.026l-0.797-1.459l-5.264,0.146l0.771,1.447l-1.771,0.041l-0.785-1.457    l-3.737,0.111l-0.017-0.742l3.364-0.089l-2.003-3.76l-4.14,0.12l-0.028-0.693l3.803-0.1l-0.785-1.489l1.76-0.039l0.811,1.502    l5.265-0.151l-0.798-1.488l1.746-0.04l0.798,1.488l3.79-0.1l0.017,0.713l-3.416,0.091l1.95,3.745l4.242-0.097L334.1,169.884z     M328.133,169.308l-2.002-3.76l-5.251,0.145l1.989,3.735L328.133,169.308z"/>
		<path d="M328.963,184.822c2.525,1.364,3.281,1.556,4.219,1.814c-0.084,0.392-0.165,0.758-0.195,1.153    c-0.03,0.396-0.009,0.797,0.014,1.197c-1.633-1.242-2.015-1.458-4.156-2.633l-9.854-5.254l-1.609-0.842    c-1.559-0.812-1.923-0.92-2.66-1.003c0.058-0.395,0.143-0.814,0.174-1.21s0.009-0.797,0.015-1.222    c1.271,1.108,3.129,2.155,4.174,2.741L328.963,184.822z"/>
		<path d="M326.535,193.254c3.352,0.528,4.082,0.656,5.875,0.402c-0.148,0.54-0.424,1.515-0.905,4.28    c-0.345,1.985-0.657,4.244-0.905,6.138c-0.648-0.14-1.16-0.283-1.763-0.387c-0.443-0.077-0.84-0.119-1.319-0.148    c1.117-0.693,1.434-1.123,1.964-4.178c0.178-1.019,0.256-1.623,0.386-2.677c-1.035-0.233-2.102-0.446-2.963-0.596l-2.846-0.495    c-0.261,1.031-0.449,1.806-0.693,3.216c-0.072,0.418-0.287,1.645-0.226,2.381c0.035,0.571,0.203,0.843,0.431,1.231    c-0.607-0.213-1.017-0.339-1.8-0.474c-0.679-0.119-1.08-0.134-1.646-0.125c0.535-0.606,0.715-0.871,0.974-1.74    c0.375-1.387,0.585-2.588,0.923-4.843l-4.699-0.816c-2.146-0.347-2.369-0.143-2.882,2.808c-0.055,0.312-0.163,0.939-0.199,1.768    c-0.132,1.994,0.233,2.676,0.659,3.477c-1.398-0.78-1.75-0.923-3.075-1.342c0.181-0.883,0.602-2.531,1.137-5.612    c0.454-2.61,0.653-3.759,0.751-5.248c0.486,0.3,0.829,0.493,1.411,0.702c1.391,0.511,3.188,0.851,4.833,1.135L326.535,193.254z"/>
		<path d="M325.918,210.926l-9.74-2.724c1.246,1.639,1.718,3.012,1.412,4.115c-0.189,0.689-0.58,1.182-1.17,1.474    c-0.591,0.293-1.271,0.334-2.045,0.121c-1.271-0.351-2.253-1.199-2.945-2.549c-0.691-1.349-0.949-2.91-0.773-4.686l0.059-0.601    l15.351,4.216L325.918,210.926z M311.399,206.902l-0.002,0.441c-0.021,1.242,0.227,2.301,0.741,3.173s1.224,1.433,2.129,1.683    c0.546,0.15,1.044,0.143,1.492-0.023c0.448-0.167,0.726-0.447,0.836-0.846c0.227-0.82-0.3-1.959-1.576-3.416L311.399,206.902z"/>
		<path d="M304.965,253.021c2.868,1.812,3.488,2.219,5.234,2.695c-0.35,0.438-0.988,1.223-2.525,3.572    c-1.104,1.687-2.284,3.637-3.262,5.277c-0.54-0.385-0.955-0.72-1.465-1.054c-0.377-0.246-0.724-0.442-1.153-0.658    c1.3-0.194,1.761-0.464,3.458-3.059c0.566-0.865,0.877-1.39,1.413-2.306c-0.858-0.625-1.753-1.242-2.484-1.721l-2.418-1.581    c-0.646,0.845-1.126,1.48-1.909,2.678c-0.232,0.354-0.914,1.397-1.15,2.098c-0.193,0.538-0.147,0.854-0.092,1.302    c-0.475-0.437-0.8-0.714-1.465-1.148c-0.577-0.378-0.939-0.551-1.463-0.767c0.732-0.345,1.002-0.516,1.585-1.212    c0.895-1.125,1.562-2.146,2.765-4.081l-3.992-2.611c-1.833-1.167-2.118-1.069-3.758,1.437c-0.175,0.267-0.522,0.799-0.883,1.545    c-0.911,1.778-0.846,2.55-0.771,3.453c-0.974-1.271-1.241-1.54-2.293-2.449c0.517-0.74,1.556-2.087,3.267-4.703    c1.451-2.219,2.089-3.194,2.768-4.522c0.328,0.467,0.566,0.781,1.019,1.203c1.074,1.021,2.59,2.042,3.987,2.957L304.965,253.021z"/>
		<path d="M259.275,298.996c3.24,4.973,3.751,5.367,4.59,5.928c-0.613,0.369-2.973,1.749-4.549,2.774    c-1.398,0.911-2.998,2.05-4.619,3.202c-0.229-0.547-0.359-0.843-0.634-1.265c-0.29-0.443-0.624-0.858-1.017-1.267    c0.478,0.101,0.909,0.229,1.713-0.041c0.62-0.214,1.521-0.675,2.432-1.269c0.423-0.275,0.808-0.558,1.229-0.832    c0.518-0.369,1.021-0.762,1.518-1.117c-0.874-1.486-1.105-1.841-1.8-2.907l-1.375-2.108c-1.072,0.636-1.627,0.996-2.062,1.25    c-0.481,0.281-1.08,0.673-1.784,1.193c-1.475,1.089-1.39,1.411-1.615,1.938c-0.251-0.531-0.431-0.952-0.764-1.464    c-0.348-0.532-0.732-0.978-1.104-1.399c0.619-0.023,1.022-0.034,2.271-0.689c0.688-0.354,1.599-0.947,1.953-1.178    c0.422-0.274,0.977-0.636,1.991-1.361c-2.48-3.855-3.421-5.298-4.541-6.435c-0.379-0.387-0.583-0.506-0.956-0.738    c0.599-0.295,1.183-0.611,1.738-0.974c0.576-0.376,1.147-0.812,1.681-1.254c0.344,1.644,1.334,3.212,3.025,5.904L259.275,298.996z    "/>
	</g>
	<g>
		<path d="M197.984,324.09c0.88,5.871,1.18,6.441,1.71,7.301c-0.712,0.08-3.431,0.353-5.291,0.631    c-1.651,0.248-3.579,0.617-5.532,0.99c0.018-0.593,0.023-0.915-0.051-1.412c-0.079-0.525-0.21-1.041-0.396-1.576    c0.392,0.289,0.73,0.588,1.574,0.675c0.652,0.063,1.664,0.019,2.738-0.142c0.498-0.075,0.967-0.172,1.465-0.246    c0.624-0.121,1.245-0.268,1.844-0.384c-0.176-1.715-0.238-2.135-0.428-3.392l-0.372-2.49c-1.24,0.132-1.896,0.23-2.397,0.277    c-0.554,0.057-1.262,0.163-2.118,0.346c-1.793,0.375-1.851,0.705-2.275,1.091c-0.007-0.589,0.005-1.046-0.086-1.649    c-0.094-0.629-0.259-1.193-0.42-1.732c0.571,0.236,0.943,0.396,2.352,0.318c0.772-0.035,1.847-0.196,2.266-0.26    c0.498-0.074,1.153-0.172,2.377-0.408c-0.652-4.539-0.907-6.242-1.454-7.742c-0.184-0.507-0.319-0.701-0.562-1.066    c0.667-0.021,1.33-0.066,1.985-0.164c0.682-0.102,1.381-0.261,2.051-0.441c-0.371,1.637-0.123,3.476,0.296,6.628L197.984,324.09z"/>
		<path d="M175.557,334.035l-0.171-3.826l-1.448,0.828l-0.063-1.732l1.438-0.827l-0.258-5.26l-1.426,0.801l-0.077-1.771l1.435-0.814    l-0.191-3.734l0.739-0.033l0.162,3.36l3.717-2.081l-0.207-4.135l0.691-0.043l0.18,3.799l1.466-0.815l0.078,1.758l-1.48,0.843    l0.264,5.259l1.466-0.829l0.076,1.745l-1.465,0.829l0.18,3.787l-0.71,0.031l-0.164-3.412l-3.705,2.029l0.203,4.238    L175.557,334.035z M176.005,328.059l3.718-2.082l-0.26-5.246l-3.69,2.066L176.005,328.059z"/>
		<path d="M160.507,329.218c-1.311,2.554-1.485,3.313-1.725,4.256c-0.394-0.075-0.761-0.148-1.158-0.171    c-0.396-0.022-0.796,0.008-1.196,0.039c1.208-1.657,1.416-2.044,2.546-4.211l5.043-9.961l0.808-1.628    c0.778-1.575,0.878-1.941,0.946-2.681c0.396,0.049,0.815,0.125,1.213,0.147c0.396,0.022,0.796-0.008,1.222-0.011    c-1.081,1.293-2.09,3.174-2.653,4.23L160.507,329.218z"/>
		<path d="M143.201,331.641c-2.748-0.44-4.222-1.293-5.202-1.879c0.91-1.33,1.052-1.71,1.353-2.923    c0.278,0.608,0.521,1.103,1.254,1.729c0.995,0.83,2.135,1.254,2.972,1.388c4.658,0.743,7.445-2.595,8.064-6.468    c0.473-2.957-0.104-5.062-0.976-6.328c-0.91-1.353-2.608-2.482-4.519-2.788c-0.863-0.138-1.727-0.114-2.601-0.013    c-0.189,1.016-0.309,1.588-0.462,2.556c-0.452,2.826-0.368,2.974,0.173,3.785c-0.641-0.183-1.31-0.37-1.99-0.479    c-0.706-0.113-1.451-0.15-2.196-0.189c0.571-0.553,0.723-0.824,0.908-1.652c0.178-0.777,0.309-1.428,0.521-2.762    c0.251-1.57,0.222-2.059,0.142-3.064c0.613,0.019,1.036,0.059,2.465,0.02c1.402-0.045,3.359,0.133,4.197,0.268    c5.286,0.844,8.412,4.967,7.479,10.803C153.947,328.875,150.266,332.769,143.201,331.641z"/>
		<path d="M130.793,325.844l2.742-9.732c-1.648,1.247-3.026,1.717-4.135,1.408c-0.691-0.191-1.184-0.584-1.478-1.175    c-0.293-0.592-0.332-1.274-0.118-2.048c0.354-1.271,1.207-2.252,2.561-2.941s2.922-0.943,4.702-0.763l0.604,0.06l-4.244,15.341    L130.793,325.844z M134.842,311.336l-0.443-0.002c-1.247-0.025-2.31,0.219-3.188,0.731c-0.876,0.513-1.44,1.222-1.692,2.126    c-0.151,0.549-0.145,1.047,0.022,1.496c0.166,0.447,0.45,0.728,0.85,0.839c0.823,0.229,1.968-0.295,3.434-1.569L134.842,311.336z"/>
		<path d="M83.963,308.803c-2.371-1.455-3.407-2.807-4.089-3.723c1.35-0.882,1.625-1.179,2.366-2.185    c0.025,0.668,0.062,1.218,0.498,2.077c0.602,1.146,1.494,1.975,2.216,2.418c4.021,2.468,7.872,0.448,9.924-2.895    c1.566-2.552,1.839-4.717,1.518-6.221c-0.324-1.598-1.461-3.291-3.11-4.304c-0.745-0.458-1.551-0.765-2.398-1.005    c-0.563,0.866-0.892,1.35-1.404,2.186c-1.497,2.438-1.476,2.606-1.285,3.563c-0.523-0.415-1.069-0.843-1.656-1.203    c-0.61-0.375-1.283-0.694-1.957-1.016c0.738-0.292,0.981-0.485,1.471-1.181c0.46-0.649,0.83-1.2,1.537-2.352    c0.832-1.355,0.99-1.817,1.3-2.777c0.562,0.25,0.937,0.45,2.272,0.959c1.312,0.495,3.053,1.408,3.775,1.852    c4.563,2.801,5.875,7.805,2.784,12.841C94.95,310.355,90.061,312.546,83.963,308.803z"/>
		<path d="M42.82,271.721c-1.749-2.164-2.275-3.783-2.61-4.874c1.565-0.38,1.925-0.569,2.96-1.269    c-0.199,0.639-0.35,1.168-0.225,2.124c0.184,1.281,0.748,2.359,1.281,3.019c2.966,3.668,7.271,3.051,10.321,0.586    c2.329-1.883,3.308-3.833,3.507-5.357c0.229-1.615-0.278-3.59-1.495-5.095c-0.549-0.681-1.206-1.239-1.925-1.749    c-0.819,0.629-1.29,0.975-2.053,1.592c-2.227,1.798-2.262,1.964-2.402,2.93c-0.355-0.565-0.726-1.152-1.159-1.688    c-0.449-0.557-0.978-1.084-1.507-1.61c0.795-0.029,1.089-0.13,1.781-0.622c0.65-0.458,1.184-0.854,2.235-1.703    c1.235-1,1.54-1.382,2.152-2.184c0.445,0.424,0.732,0.736,1.821,1.662c1.072,0.904,2.408,2.347,2.941,3.006    c3.365,4.164,2.932,9.318-1.665,13.033C52.659,276.854,47.318,277.286,42.82,271.721z"/>
		<path d="M31.075,254.838l3.253-2.021l-1.439-0.873l1.482-0.902l1.434,0.865l4.457-2.809l-1.4-0.857l1.507-0.934l1.422,0.869    l3.165-1.992l0.385,0.622l-2.853,1.783l3.627,2.216l3.505-2.203l0.38,0.586l-3.227,2.016l1.431,0.883l-1.496,0.928l-1.461-0.884    l-4.463,2.799l1.445,0.88l-1.485,0.921l-1.441-0.876l-3.216,2.008l-0.379-0.61l2.896-1.811l-3.574-2.229l-3.598,2.251    L31.075,254.838z M36.504,252.298l3.627,2.216l4.454-2.785l-3.604-2.205L36.504,252.298z"/>
		<path d="M27.924,239.352c-2.869,0.105-3.617,0.323-4.556,0.576c-0.127-0.381-0.243-0.737-0.417-1.094    c-0.174-0.357-0.396-0.691-0.619-1.025c2.036,0.244,2.475,0.235,4.916,0.162l11.156-0.469l1.816-0.091    c1.754-0.091,2.122-0.183,2.8-0.484c0.151,0.368,0.29,0.773,0.465,1.13c0.174,0.357,0.396,0.691,0.606,1.061    c-1.656-0.311-3.79-0.271-4.988-0.246L27.924,239.352z"/>
		<path d="M23.466,229.299c-2.715,0.072-3.415,0.162-4.392,0.354c-0.182-0.723-0.365-1.446-0.622-2.143    c-0.249-0.671-0.581-1.34-0.895-1.958c1.816-1.124,2.595-1.694,4.686-3.372l5.908-4.729c0.815-0.697,2.146-1.756,2.963-2.452    c1.47-1.223,1.666-1.607,1.917-2.151c0.148,0.708,0.331,1.433,0.58,2.103c0.248,0.672,0.562,1.289,0.9,1.898    c-0.184,0.04-0.426,0.073-0.649,0.156c-0.472,0.175-1.209,0.701-2.053,1.324l-2.16,1.646c0.297,1.105,0.643,2.193,1.038,3.262    c0.423,1.143,0.921,2.259,1.428,3.399l2.342-0.16c2.433-0.222,2.625-0.237,2.974-0.366c0.149-0.055,0.223-0.082,0.463-0.199    c0.137,0.6,0.274,1.199,0.495,1.795c0.211,0.572,0.506,1.141,0.792,1.685c-1.924-0.39-2.562-0.436-6.434-0.36L23.466,229.299z     M24.021,224.234c-1.311,0.965-1.843,1.359-3.294,2.32c-0.32,0.203-0.616,0.397-0.911,0.592l10.006-0.369    c-0.28-0.912-0.571-1.851-0.911-2.77c-0.331-0.896-0.721-1.797-1.103-2.673L24.021,224.234z"/>
		<path d="M16.496,212.396l9.83-2.418c-1.901-0.814-2.992-1.778-3.27-2.892c-0.175-0.695-0.076-1.315,0.295-1.862    s0.947-0.917,1.727-1.112c1.283-0.319,2.559-0.062,3.827,0.772c1.269,0.834,2.263,2.07,2.983,3.705l0.245,0.552L16.68,213.02    L16.496,212.396z M31.131,208.761l-0.217-0.387c-0.595-1.097-1.332-1.901-2.213-2.411c-0.879-0.51-1.776-0.65-2.689-0.422    c-0.554,0.138-0.985,0.391-1.295,0.758c-0.309,0.366-0.412,0.75-0.312,1.152c0.206,0.829,1.229,1.567,3.064,2.211L31.131,208.761z    "/>
		<path d="M12.366,170.335c-2.549-0.936-3.234-1.112-4.21-1.294c0.097-0.74,0.194-1.48,0.213-2.222    c0.018-0.716-0.045-1.46-0.107-2.149c2.104-0.375,3.036-0.616,5.6-1.402l7.238-2.211c1.016-0.348,2.645-0.838,3.659-1.185    c1.816-0.592,2.143-0.876,2.577-1.29c-0.124,0.714-0.222,1.453-0.238,2.168c-0.018,0.715,0.045,1.406,0.135,2.098    c-0.186-0.031-0.423-0.09-0.66-0.096c-0.504-0.012-1.384,0.205-2.396,0.473l-2.616,0.732c-0.134,1.136-0.214,2.274-0.242,3.414    c-0.029,1.218,0.021,2.439,0.07,3.686l2.237,0.717c2.342,0.693,2.526,0.75,2.896,0.759c0.159,0.004,0.237,0.007,0.503-0.015    c-0.094,0.608-0.188,1.215-0.202,1.852c-0.016,0.608,0.049,1.247,0.113,1.857c-1.644-1.072-2.221-1.352-5.846-2.712    L12.366,170.335z M14.754,165.833c-1.573,0.413-2.214,0.583-3.918,0.939c-0.374,0.071-0.72,0.142-1.066,0.214l9.436,3.355    c0.075-0.953,0.152-1.932,0.176-2.912c0.022-0.953-0.006-1.936-0.035-2.89L14.754,165.833z"/>
		<path d="M21.554,117.808c-2.093-1.732-2.68-2.125-3.539-2.623c0.338-0.664,0.677-1.33,0.94-2.024    c0.254-0.668,0.444-1.389,0.615-2.062c2.106,0.349,3.067,0.431,5.746,0.543l7.562,0.326c1.072,0.011,2.771,0.09,3.845,0.102    c1.911,0.047,2.312-0.113,2.858-0.358c-0.354,0.632-0.691,1.296-0.945,1.965c-0.255,0.668-0.427,1.34-0.571,2.022    c-0.165-0.09-0.368-0.225-0.592-0.31c-0.471-0.179-1.372-0.268-2.417-0.353l-2.71-0.181c-0.505,1.027-0.959,2.073-1.364,3.138    c-0.434,1.139-0.793,2.307-1.161,3.499l1.869,1.42c1.978,1.433,2.132,1.549,2.479,1.681c0.149,0.057,0.224,0.085,0.48,0.154    c-0.291,0.541-0.582,1.083-0.809,1.677c-0.216,0.569-0.369,1.192-0.511,1.791c-1.193-1.56-1.644-2.016-4.608-4.504L21.554,117.808    z M25.304,114.358c-1.62-0.135-2.281-0.188-4.008-0.42c-0.375-0.057-0.725-0.106-1.076-0.154L28,120.09    c0.389-0.873,0.787-1.771,1.136-2.687c0.339-0.892,0.638-1.827,0.929-2.737L25.304,114.358z"/>
		<path d="M27.881,92.803l3.392,1.783l0.023-1.681l1.527,0.821l-0.02,1.675l4.677,2.427l0.031-1.642l1.568,0.827l-0.028,1.663    l3.319,1.723l-0.344,0.65l-2.98-1.559l-0.086,4.264l3.677,1.911l-0.313,0.621l-3.371-1.765l-0.038,1.681l-1.557-0.821l0.024-1.711    l-4.674-2.431l-0.032,1.693l-1.544-0.815l0.026-1.688L27.8,98.671l0.336-0.639l3.028,1.583l0.122-4.223l-3.757-1.982    L27.881,92.803z M32.818,96.203l-0.084,4.265l4.66,2.431l0.084-4.235L32.818,96.203z"/>
		<path d="M39.631,82.272c-1.545-2.42-2.113-2.955-2.807-3.636c0.264-0.301,0.512-0.582,0.732-0.914    c0.219-0.331,0.394-0.691,0.569-1.053c0.822,1.878,1.052,2.253,2.352,4.321l6.061,9.379l0.997,1.519    c0.969,1.466,1.234,1.737,1.838,2.168c-0.241,0.317-0.52,0.641-0.739,0.972c-0.219,0.332-0.394,0.692-0.605,1.061    c-0.571-1.585-1.688-3.404-2.315-4.423L39.631,82.272z"/>
		<path d="M47.529,77.387c-3.508-2.869-4.943-4.043-6.613-4.555c0.496-0.482,0.874-0.859,1.428-1.536    c0.855-1.047,1.569-2.004,3.122-3.985c0.818-1.043,1.946-2.379,3.937-2.635c1.509-0.17,2.576,0.533,3.191,1.036    c0.718,0.588,1.363,1.389,1.535,2.728c0.188,1.695-0.574,2.92-1.29,4.045c0.921-0.958,2.403-2.519,4.378-2.547    c1.283,0.022,2.256,0.715,2.688,1.068c1.312,1.074,3.663,4.06,0.207,8.284c-1.108,1.354-1.692,1.901-2.801,3.256    c-0.453,0.554-0.936,1.186-1.78,2.344c-0.116-0.779-2.094-2.672-5.13-5.155L47.529,77.387z M49.257,75.274    c0.858-0.838,1.496-1.618,1.781-1.966c0.352-0.431,0.914-1.409,1.079-2.198c0.309-1.632-0.668-2.532-1.221-2.985    c-1.969-1.611-3.538-0.531-4.947,1.191c-0.52,0.636-0.902,1.146-1.462,1.954c0.606,0.599,1.55,1.371,2.616,2.244L49.257,75.274z     M54.755,79.772c0.964,0.789,1.373,1.124,2.441,0.32c0.28-0.217,0.687-0.671,0.938-0.979c1.661-2.03,1.719-4.277-0.045-5.72    c-2.688-2.198-4.702,0.056-5.659,1.226c-0.303,0.369-0.752,0.96-1.553,1.982L54.755,79.772z"/>
		<path d="M56.609,59.195l7.095,7.204c-0.267-2.046,0.009-3.474,0.823-4.282c0.508-0.505,1.092-0.738,1.752-0.7    c0.658,0.04,1.271,0.343,1.835,0.912c0.93,0.937,1.359,2.162,1.29,3.678c-0.071,1.515-0.624,3-1.66,4.453l-0.35,0.493    L56.174,59.664L56.609,59.195z M67.206,69.899l0.221-0.384c0.64-1.07,0.954-2.113,0.943-3.129    c-0.011-1.015-0.348-1.855-1.008-2.521c-0.4-0.404-0.838-0.645-1.31-0.722c-0.473-0.077-0.854,0.029-1.148,0.321    c-0.607,0.601-0.72,1.855-0.338,3.757L67.206,69.899z"/>
		<path d="M100.928,32.764c-1.894-4.118-2.668-5.803-3.945-6.996c0.659-0.215,1.162-0.388,1.957-0.753    c1.229-0.565,2.29-1.112,4.555-2.212c1.192-0.577,2.793-1.284,4.693-0.641c1.43,0.509,2.082,1.61,2.413,2.333    c0.388,0.842,0.616,1.846,0.183,3.124c-0.574,1.606-1.797,2.372-2.935,3.069c1.249-0.457,3.266-1.208,5.052-0.368    c1.144,0.583,1.714,1.633,1.946,2.138c0.708,1.541,1.511,5.256-3.448,7.537c-1.59,0.73-2.355,0.965-3.944,1.696    c-0.65,0.299-1.362,0.655-2.629,1.325c0.238-0.75-0.71-3.319-2.347-6.882L100.928,32.764z M103.407,31.623    c1.139-0.377,2.054-0.798,2.463-0.986c0.506-0.232,1.44-0.866,1.935-1.502c0.992-1.331,0.512-2.568,0.212-3.218    c-1.062-2.312-2.945-2.029-4.967-1.099c-0.747,0.343-1.313,0.633-2.171,1.114c0.281,0.804,0.791,1.912,1.367,3.164L103.407,31.623    z M106.374,38.076c0.521,1.131,0.742,1.613,2.054,1.36c0.348-0.071,0.912-0.303,1.273-0.468c2.383-1.097,3.421-3.09,2.469-5.161    c-1.449-3.153-4.25-2.012-5.623-1.381c-0.433,0.2-1.096,0.533-2.266,1.1L106.374,38.076z"/>
	</g>
	<circle fill="none" stroke="#006B33" stroke-width="2" cx="171" cy="171.001" r="134.999"/>
</g>
<rect fill="none" width="342" height="342"/>
</svg>